<?xml version="1.0" encoding="utf-8"?>
<!-- Generator: Adobe Illustrator 25.0.0, SVG Export Plug-In . SVG Version: 6.00 Build 0)  -->
<svg version="1.1" xmlns="http://www.w3.org/2000/svg" xmlns:xlink="http://www.w3.org/1999/xlink" x="0px" y="0px"
	 viewBox="0 0 1000 1000" style="enable-background:new 0 0 1000 1000;" xml:space="preserve">
<style type="text/css">
	.st0{fill:#FFFFFF;}
</style>
<g id="Your_design">
</g>
<g id="Guides">
	<g id="XMLID_1020_">
		<path id="XMLID_1031_" class="st0" d="M263.53,286.33l105.65-61c20.09-11.6,45.21,2.9,45.21,26.1v121.99
			c0,23.2-25.11,37.7-45.2,26.1l-105.65-60.99C243.45,326.93,243.44,297.93,263.53,286.33z"/>
		<path id="XMLID_1028_" class="st0" d="M520.94,204.08l142.46,82.25c20.09,11.6,20.09,40.6,0,52.2l-142.46,82.24
			c-20.09,11.6-45.2-2.9-45.2-26.1V230.18C475.73,206.98,500.85,192.48,520.94,204.08z"/>
		<path id="XMLID_1027_" class="st0" d="M751.54,603.49v-207c0-23.2-25.11-37.7-45.2-26.1l-179.27,103.5
			c-20.09,11.6-20.09,40.6,0,52.2l179.27,103.5C726.43,641.19,751.54,626.69,751.54,603.49z"/>
		<path id="XMLID_1024_" class="st0" d="M263.52,661.47l105.66-61c20.09-11.6,45.2,2.9,45.2,26.1v122.01
			c0,23.2-25.11,37.7-45.2,26.1l-105.66-61C243.43,702.07,243.43,673.07,263.52,661.47z"/>
		<path id="XMLID_1021_" class="st0" d="M520.94,579.22l142.47,82.25c20.09,11.6,20.09,40.6,0,52.2l-142.47,82.25
			c-20.09,11.6-45.2-2.9-45.2-26.1v-164.5C475.73,582.12,500.84,567.62,520.94,579.22z"/>
	</g>
</g>
</svg>
